<?xml version="1.0" encoding="utf-8"?>
<svg id="master-artboard" viewBox="0 0 1400 980" version="1.1" xmlns="http://www.w3.org/2000/svg" x="0px" y="0px" style="enable-background:new 0 0 336 235.2;" width="1400px" height="980px"><g transform="matrix(0.8166666666666667, 0, 0, 0.8166666666666667, 128.33341388519818, 0)"><path d="M 0 0 H 1400 V 1200 H 0 V 0 Z" class="st0" style="fill: rgb(49,175,183);"/><g>
	<path class="st1" d="M891.9,352.4l-59.3-2.7c-4-0.2-7.4-2.9-8.4-6.7c-5.7-21.4-14.2-41.7-25-60.4c-2-3.4-1.5-7.8,1.1-10.7l40-43.8&#10;&#9;&#9;c3.3-3.6,3.2-9.1-0.3-12.5l-63-63c-3.4-3.4-9-3.6-12.5-0.3l-43.8,40c-2.9,2.7-7.3,3.1-10.7,1.1c-18.7-10.9-39-19.4-60.4-25&#10;&#9;&#9;c-3.8-1-6.6-4.4-6.7-8.4l-2.7-59.3c-0.2-4.9-4.2-8.7-9.1-8.7h-89.1c-4.9,0-8.9,3.8-9.1,8.7l-2.7,59.3c-0.2,4-2.9,7.4-6.7,8.4&#10;&#9;&#9;c-21.4,5.7-41.7,14.2-60.4,25c-3.4,2-7.8,1.5-10.7-1.1l-43.8-40c-3.6-3.3-9.1-3.2-12.5,0.3l-63,63c-3.4,3.4-3.6,9-0.3,12.5l40,43.8&#10;&#9;&#9;c2.7,2.9,3.1,7.3,1.1,10.7c-10.9,18.7-19.4,39-25,60.4c-1,3.8-4.4,6.6-8.4,6.7l-59.3,2.7c-4.9,0.2-8.7,4.2-8.7,9.1v89.1&#10;&#9;&#9;c0,4.9,3.8,8.9,8.7,9.1l59.3,2.7c4,0.2,7.4,2.9,8.4,6.7c5.7,21.4,14.2,41.7,25,60.4c2,3.4,1.5,7.8-1.1,10.7l-40,43.8&#10;&#9;&#9;c-3.3,3.6-3.2,9.1,0.3,12.5l63,63c3.4,3.4,9,3.6,12.5,0.3l43.8-40c2.9-2.7,7.3-3.1,10.7-1.1c18.7,10.9,39,19.4,60.4,25&#10;&#9;&#9;c3.8,1,6.6,4.4,6.7,8.4l2.7,59.3c0.2,4.9,4.2,8.7,9.1,8.7h89.1c4.9,0,8.9-3.8,9.1-8.7l2.7-59.3c0.2-4,2.9-7.4,6.7-8.4&#10;&#9;&#9;c21.4-5.7,41.7-14.2,60.4-25c3.4-2,7.8-1.5,10.7,1.1l43.8,40c3.6,3.3,9.1,3.2,12.5-0.3l63-63c3.4-3.4,3.6-9,0.3-12.5l-40-43.8&#10;&#9;&#9;c-2.7-2.9-3.1-7.3-1.1-10.7c10.9-18.7,19.4-39,25-60.4c1-3.8,4.4-6.6,8.4-6.7l59.3-2.7c4.9-0.2,8.7-4.2,8.7-9.1v-89.1&#10;&#9;&#9;C900.6,356.7,896.8,352.7,891.9,352.4z M586.7,555.2c-82.4,0-149.2-66.8-149.2-149.2c0-82.4,66.8-149.2,149.2-149.2&#10;&#9;&#9;s149.2,66.8,149.2,149.2C735.8,488.5,669,555.2,586.7,555.2z" style="fill: rgb(141, 225, 255);"/>
	<path class="st1" d="M1123.5,599.2l-25.7-1.2c-1.7-0.1-3.2-1.3-3.6-2.9c-2.5-9.3-6.1-18.1-10.9-26.2c-0.9-1.5-0.7-3.4,0.5-4.6&#10;&#9;&#9;l17.4-19c1.4-1.6,1.4-4-0.1-5.4l-27.3-27.3c-1.5-1.5-3.9-1.5-5.4-0.1l-19,17.4c-1.3,1.2-3.1,1.4-4.6,0.5&#10;&#9;&#9;c-8.1-4.7-16.9-8.4-26.2-10.9c-1.7-0.4-2.8-1.9-2.9-3.6l-1.2-25.7c-0.1-2.1-1.8-3.8-3.9-3.8h-38.6c-2.1,0-3.8,1.7-3.9,3.8&#10;&#9;&#9;l-1.2,25.7c-0.1,1.7-1.3,3.2-2.9,3.6c-9.3,2.5-18.1,6.1-26.2,10.9c-1.5,0.9-3.4,0.7-4.6-0.5l-19-17.4c-1.6-1.4-4-1.4-5.4,0.1&#10;&#9;&#9;l-27.3,27.3c-1.5,1.5-1.5,3.9-0.1,5.4l17.4,19c1.2,1.3,1.4,3.1,0.5,4.6c-4.7,8.1-8.4,16.9-10.9,26.2c-0.4,1.7-1.9,2.8-3.6,2.9&#10;&#9;&#9;l-25.7,1.2c-2.1,0.1-3.8,1.8-3.8,3.9v38.6c0,2.1,1.7,3.8,3.8,3.9l25.7,1.2c1.7,0.1,3.2,1.3,3.6,2.9c2.5,9.3,6.1,18.1,10.9,26.2&#10;&#9;&#9;c0.9,1.5,0.7,3.4-0.5,4.6l-17.4,19c-1.4,1.6-1.4,4,0.1,5.4l27.3,27.3c1.5,1.5,3.9,1.5,5.4,0.1l19-17.4c1.3-1.2,3.1-1.4,4.6-0.5&#10;&#9;&#9;c8.1,4.7,16.9,8.4,26.2,10.9c1.7,0.4,2.8,1.9,2.9,3.6l1.2,25.7c0.1,2.1,1.8,3.8,3.9,3.8h38.6c2.1,0,3.8-1.7,3.9-3.8l1.2-25.7&#10;&#9;&#9;c0.1-1.7,1.3-3.2,2.9-3.6c9.3-2.5,18.1-6.1,26.2-10.9c1.5-0.9,3.4-0.7,4.6,0.5l19,17.4c1.6,1.4,4,1.4,5.4-0.1l27.3-27.3&#10;&#9;&#9;c1.5-1.5,1.5-3.9,0.1-5.4l-17.4-19c-1.2-1.3-1.4-3.1-0.5-4.6c4.7-8.1,8.4-16.9,10.9-26.2c0.4-1.7,1.9-2.8,3.6-2.9l25.7-1.2&#10;&#9;&#9;c2.1-0.1,3.8-1.8,3.8-3.9v-38.6C1127.3,601.1,1125.7,599.3,1123.5,599.2z M991.2,687.1c-35.7,0-64.7-29-64.7-64.7&#10;&#9;&#9;c0-35.7,29-64.7,64.7-64.7s64.7,29,64.7,64.7C1055.9,658.2,1026.9,687.1,991.2,687.1z" style="fill: rgb(141, 225, 255);"/>
</g><path class="st2" d="M1152.9,1107.9H247.1c-4.7,0-8.6-3.8-8.6-8.6l0,0c0-4.7,3.8-8.6,8.6-8.6h905.7c4.7,0,8.6,3.8,8.6,8.6l0,0&#10;&#9;C1161.4,1104.1,1157.6,1107.9,1152.9,1107.9z" style="fill: rgb(80, 113, 140);"/><g>
	<g>
		<g>
			<path class="st2" d="M488.2,540.9H247.8c-7.6,0-13.9-6.2-13.9-13.9V343.5c0-7.6,6.2-13.9,13.9-13.9h240.4&#10;&#9;&#9;&#9;&#9;c7.6,0,13.9,6.2,13.9,13.9v183.6C502,534.7,495.8,540.9,488.2,540.9z" style="fill: rgb(80, 113, 140);"/>
			<path class="st3" d="M244.3,374v153.1c0,1.9,1.6,3.5,3.5,3.5h240.4c1.9,0,3.5-1.6,3.5-3.5V374c0-1.9-1.6-3.5-3.5-3.5H247.8&#10;&#9;&#9;&#9;&#9;C245.9,370.5,244.3,372.1,244.3,374z" style="fill: rgb(232, 238, 247);"/>
			<path d="M 257.7 347.399994 A 6.7 6.7 0 0 1 251 354.099994 A 6.7 6.7 0 0 1 244.3 347.399994 A 6.7 6.7 0 0 1 251 340.699994 A 6.7 6.7 0 0 1 257.7 347.399994 Z" class="st4" style="fill: rgb(234, 115, 115);"/>
			<path d="M 278.7 347.399994 A 6.7 6.7 0 0 1 272 354.099994 A 6.7 6.7 0 0 1 265.3 347.399994 A 6.7 6.7 0 0 1 272 340.699994 A 6.7 6.7 0 0 1 278.7 347.399994 Z" class="st5" style="fill: rgb(255, 205, 64);"/>
			<path d="M 299.7 347.399994 A 6.7 6.7 0 0 1 293 354.099994 A 6.7 6.7 0 0 1 286.3 347.399994 A 6.7 6.7 0 0 1 293 340.699994 A 6.7 6.7 0 0 1 299.7 347.399994 Z" class="st6" style="fill: rgb(130, 204, 125);"/>
		</g>
		<g>
			<g>
				<path d="M 254.100006 398.799988 H 361.700005 V 413.599988 H 254.100006 V 398.799988 Z" class="st6" style="fill: rgb(130, 204, 125);"/>
				<path d="M 254.100006 423.5 H 301.300007 V 502.300003 H 254.100006 V 423.5 Z" class="st0" style="fill: rgb(49,175,183);"/>
				<path d="M 314.399994 423.5 H 361.599995 V 502.300003 H 314.399994 V 423.5 Z" class="st7" style="fill: rgb(74, 139, 186);"/>
			</g>
			<g>
				<g>
					<path d="M 374.299988 398.799988 H 457.299988 V 413.599988 H 374.299988 V 398.799988 Z" class="st6" style="fill: rgb(130, 204, 125);"/>
				</g>
				<g>
					<path d="M 374.299988 428.399994 H 481.899986 V 443.199994 H 374.299988 V 428.399994 Z" class="st4" style="fill: rgb(234, 115, 115);"/>
				</g>
				<g>
					<path d="M 374.299988 487.5 H 481.899986 V 502.3 H 374.299988 V 487.5 Z" class="st6" style="fill: rgb(130, 204, 125);"/>
				</g>
				<g>
					<path d="M 374.299988 457.899994 H 404.299988 V 472.699994 H 374.299988 V 457.899994 Z" class="st5" style="fill: rgb(255, 205, 64);"/>
					<path d="M 420 457.899994 H 481.900002 V 472.699994 H 420 V 457.899994 Z" class="st5" style="fill: rgb(255, 205, 64);"/>
				</g>
			</g>
		</g>
	</g>
	<g>
		<g>
			<path d="M 703.099976 353 H 776.899979 V 408.900002 H 703.099976 V 353 Z" class="st3" style="fill: rgb(232, 238, 247);"/>
			<g>
				<path class="st2" d="M594.1,110.2h291.8c9.3,0,16.8,7.5,16.8,16.8v222.9c0,9.3-7.5,16.8-16.8,16.8H594.1&#10;&#9;&#9;&#9;&#9;&#9;c-9.3,0-16.8-7.5-16.8-16.8V127C577.3,117.7,584.8,110.2,594.1,110.2z" style="fill: rgb(80, 113, 140);"/>
				<path class="st3" d="M890.1,312.8V127c0-2.3-1.9-4.2-4.2-4.2H594.1c-2.3,0-4.2,1.9-4.2,4.2v185.8c0,2.3,1.9,4.2,4.2,4.2h291.8&#10;&#9;&#9;&#9;&#9;&#9;C888.2,317,890.1,315.2,890.1,312.8z" style="fill: rgb(232, 238, 247);"/>
			</g>
			<path class="st2" d="M787.9,418.2h-95.8c-5.1,0-9.3-4.1-9.3-9.3v0c0-5.1,4.1-9.3,9.3-9.3h95.8c5.1,0,9.3,4.1,9.3,9.3v0&#10;&#9;&#9;&#9;&#9;C797.2,414.1,793,418.2,787.9,418.2z" style="fill: rgb(80, 113, 140);"/>
		</g>
		<g>
			<path d="M 605.900024 138.600006 H 874.200012 V 151.800006 H 605.900024 V 138.600006 Z" class="st0" style="fill: rgb(49,175,183);"/>
			<path d="M 605.900024 167.800003 H 689.800026 V 251.700005 H 605.900024 V 167.800003 Z" class="st6" style="fill: rgb(130, 204, 125);"/>
			<path d="M 605.900024 267.799988 H 874.200012 V 301.299988 H 605.900024 V 267.799988 Z" class="st0" style="fill: rgb(49,175,183);"/>
			<path d="M 705.799988 167.800003 H 796.799988 V 221.300003 H 705.799988 V 167.800003 Z" class="st7" style="fill: rgb(74, 139, 186);"/>
			<path d="M 702.099976 237.300003 H 874.199982 V 251.700003 H 702.099976 V 237.300003 Z" class="st5" style="fill: rgb(255, 205, 64);"/>
			<path d="M 812.799988 167.800003 H 874.199989 V 221.300003 H 812.799988 V 167.800003 Z" class="st4" style="fill: rgb(234, 115, 115);"/>
		</g>
	</g>
	<g>
		<g>
			<path class="st2" d="M1020.6,533.6h-66.2c-6,0-10.9-4.9-10.9-10.9V378.1c0-6,4.9-10.9,10.9-10.9h66.2c6,0,10.9,4.9,10.9,10.9&#10;&#9;&#9;&#9;&#9;v144.7C1031.4,528.7,1026.6,533.6,1020.6,533.6z" style="fill: rgb(80, 113, 140);"/>
			<path class="st3" d="M1026,506V378.1c0-3-2.4-5.4-5.4-5.4h-66.2c-3,0-5.4,2.4-5.4,5.4V506c0,3,2.4,5.4,5.4,5.4h66.2&#10;&#9;&#9;&#9;&#9;C1023.6,511.4,1026,509,1026,506z" style="fill: rgb(232, 238, 247);"/>
			<path d="M 993.6 522.5 A 6.1 6.1 0 0 1 987.5 528.6 A 6.1 6.1 0 0 1 981.4 522.5 A 6.1 6.1 0 0 1 987.5 516.4 A 6.1 6.1 0 0 1 993.6 522.5 Z" class="st3" style="fill: rgb(232, 238, 247);"/>
			<g>
				<path d="M 955.400024 388.5 H 1019.500023 V 394.9 H 955.400024 V 388.5 Z" class="st6" style="fill: rgb(130, 204, 125);"/>
				<path d="M 955.400024 400.399994 H 984.700024 V 429.699993 H 955.400024 V 400.399994 Z" class="st7" style="fill: rgb(74, 139, 186);"/>
				<path d="M 990.200012 400.399994 H 1019.500011 V 429.699993 H 990.200012 V 400.399994 Z" class="st4" style="fill: rgb(234, 115, 115);"/>
				<path d="M 955.400024 435.100006 H 984.700024 V 464.400005 H 955.400024 V 435.100006 Z" class="st5" style="fill: rgb(255, 205, 64);"/>
				<path d="M 990.200012 435.100006 H 1019.500011 V 464.400005 H 990.200012 V 435.100006 Z" class="st0" style="fill: rgb(49,175,183);"/>
				<path d="M 955.400024 469.899994 H 1019.500023 V 495.499994 H 955.400024 V 469.899994 Z" class="st6" style="fill: rgb(130, 204, 125);"/>
			</g>
		</g>
		<g>
			<path class="st2" d="M1155.2,450.7H1089c-6,0-10.9-4.9-10.9-10.9V295.2c0-6,4.9-10.9,10.9-10.9h66.2c6,0,10.9,4.9,10.9,10.9&#10;&#9;&#9;&#9;&#9;v144.7C1166.1,445.9,1161.2,450.7,1155.2,450.7z" style="fill: rgb(80, 113, 140);"/>
			<path class="st3" d="M1160.6,423.1V295.2c0-3-2.4-5.4-5.4-5.4H1089c-3,0-5.4,2.4-5.4,5.4v127.9c0,3,2.4,5.4,5.4,5.4h66.2&#10;&#9;&#9;&#9;&#9;C1158.2,428.6,1160.6,426.1,1160.6,423.1z" style="fill: rgb(232, 238, 247);"/>
			<path d="M 1128.199975 439.600006 A 6.1 6.1 0 0 1 1122.099976 445.700006 A 6.1 6.1 0 0 1 1115.999976 439.600006 A 6.1 6.1 0 0 1 1122.099976 433.500006 A 6.1 6.1 0 0 1 1128.199975 439.600006 Z" class="st3" style="fill: rgb(232, 238, 247);"/>
			<g>
				
					<path d="M 1090.099976 406.299988 H 1154.199974 V 412.699988 H 1090.099976 V 406.299988 Z" transform="matrix(-1 -1.224647e-16 1.224647e-16 -1 2244.1755 818.9311)" class="st4" style="fill: rgb(234, 115, 115);"/>
				
					<path d="M 1124.800049 371.5 H 1154.100048 V 400.799999 H 1124.800049 V 371.5 Z" transform="matrix(-1 -1.224647e-16 1.224647e-16 -1 2278.9395 772.3513)" class="st7" style="fill: rgb(74, 139, 186);"/>
				
					<path d="M 1090.099976 336.799988 H 1119.399975 V 400.899986 H 1090.099976 V 336.799988 Z" transform="matrix(-1 -1.224647e-16 1.224647e-16 -1 2209.4116 737.5875)" class="st0" style="fill: rgb(49,175,183);"/>
				
					<path d="M 1124.800049 336.799988 H 1154.100048 V 366.099987 H 1124.800049 V 336.799988 Z" transform="matrix(-1 -1.224647e-16 1.224647e-16 -1 2278.9395 702.8235)" class="st5" style="fill: rgb(255, 205, 64);"/>
				
					<path d="M 1090.099976 305.700012 H 1154.199974 V 331.300013 H 1090.099976 V 305.700012 Z" transform="matrix(-1 -1.224647e-16 1.224647e-16 -1 2244.1755 636.9908)" class="st6" style="fill: rgb(130, 204, 125);"/>
			</g>
		</g>
	</g>
</g><g>
	<g>
		<g>
			<path class="st7" d="M953.8,1047.9c0,35.4-15.3,42.7-41.7,42.7c-26.3,0-221.4,0-221.4,0s-195,0-221.4,0&#10;&#9;&#9;&#9;&#9;c-26.3,0-41.7-7.3-41.7-42.7c0-35.4,29.2-161.9,106.9-216.2c55.9-39,93.2-48.6,156.1-48.6s100.2,9.5,156.1,48.6&#10;&#9;&#9;&#9;&#9;C924.7,885.9,953.8,1012.5,953.8,1047.9z" style="fill: rgb(74, 139, 186);"/>
			<g>
				<path class="st8" d="M532.4,942.8c0.5-1.2,2.3-0.5,1.9,0.7c-7.9,24.5-16.4,49.2-17,65.5c-0.3,8.9,1.6,16.3,10.3,18.2&#10;&#9;&#9;&#9;&#9;&#9;c21.8,5.5,63.6,5.9,94.9,6c1.3,0,1.4,1.9,0.1,2c-30.3,3.5-71.5,5.1-96.7-1.2c-11.9-2.6-16-13-15.1-25.3&#10;&#9;&#9;&#9;&#9;&#9;C511.9,990.9,523,963.3,532.4,942.8z" style="fill: rgb(47, 125, 173);"/>
				<path class="st8" d="M849.2,942.8c-0.5-1.2-2.3-0.5-1.9,0.7c7.9,24.5,16.4,49.2,17,65.5c0.3,8.9-1.6,16.3-10.3,18.2&#10;&#9;&#9;&#9;&#9;&#9;c-21.8,5.5-63.6,5.9-94.9,6c-1.3,0-1.4,1.9-0.1,2c30.3,3.5,71.5,5.1,96.7-1.2c11.9-2.6,16-13,15.1-25.3&#10;&#9;&#9;&#9;&#9;&#9;C869.7,990.9,858.6,963.3,849.2,942.8z" style="fill: rgb(47, 125, 173);"/>
			</g>
		</g>
		<g>
			<path class="st9" d="M839.6,1083.6H542c-3.8,0-7-3-7.1-6.8L525,876.1c-0.2-4.1,3.1-7.5,7.1-7.5h317.2c4.1,0,7.3,3.4,7.1,7.5&#10;&#9;&#9;&#9;&#9;l-9.8,200.7C846.6,1080.6,843.4,1083.6,839.6,1083.6z" style="fill: rgb(213, 223, 239);"/>
			<path class="st3" d="M849.8,1090.8h-318c-4,0-7.2-3.2-7.2-7.2l0,0c0-4,3.2-7.2,7.2-7.2h318c4,0,7.2,3.2,7.2,7.2l0,0&#10;&#9;&#9;&#9;&#9;C856.9,1087.6,853.7,1090.8,849.8,1090.8z" style="fill: rgb(232, 238, 247);"/>
			<path d="M 718.599987 976.099976 A 27.799999 27.799999 0 0 1 690.799988 1003.899975 A 27.799999 27.799999 0 0 1 662.999989 976.099976 A 27.799999 27.799999 0 0 1 690.799988 948.299976 A 27.799999 27.799999 0 0 1 718.599987 976.099976 Z" class="st3" style="fill: rgb(232, 238, 247);"/>
		</g>
		<g>
			<g>
				<g>
					<path class="st10" d="M602.4,645.4l-7.6-2.3c-3.5-1.1-7.4,0-9.8,2.8l0,0c-2.1,2.4-2.8,5.8-1.8,8.8l10.1,32.8&#10;&#9;&#9;&#9;&#9;&#9;&#9;c1.1,3.5,4,6,7.6,6.5l0.2,0c5.9,0.8,11.1-4.1,10.6-10.1l-2.7-30.5C608.6,649.7,606,646.5,602.4,645.4z" style="fill: rgb(255, 204, 182);"/>
					<path class="st10" d="M779.2,645.4l7.6-2.3c3.5-1.1,7.4,0,9.8,2.8h0c2.1,2.4,2.8,5.8,1.8,8.8l-10.1,32.8c-1.1,3.5-4,6-7.6,6.5&#10;&#9;&#9;&#9;&#9;&#9;&#9;l-0.2,0c-5.9,0.8-11.1-4.1-10.6-10.1l2.7-30.5C773,649.7,775.6,646.5,779.2,645.4z" style="fill: rgb(255, 204, 182);"/>
				</g>
				<path class="st10" d="M690.8,839.7L690.8,839.7c-19.3,0-34.6-16.2-33.5-35.5l2.3-40.6H722l2.3,40.6&#10;&#9;&#9;&#9;&#9;&#9;C725.4,823.4,710.1,839.7,690.8,839.7z" style="fill: rgb(255, 204, 182);"/>
				<path class="st11" d="M723.7,558.7h-65.8c-23.5,0-44.2,15.6-50.6,38.2l0,0c-1.3,4.5-1.9,9.1-1.9,13.7v80.3&#10;&#9;&#9;&#9;&#9;&#9;c0,13.6,3.8,26.9,11.1,38.4l23.1,36.7c5.8,9.2,15.9,14.8,26.8,14.8h48.9c10.9,0,21-5.6,26.8-14.8l23.1-36.7&#10;&#9;&#9;&#9;&#9;&#9;c7.2-11.5,11.1-24.8,11.1-38.4v-80.3c0-4.6-0.6-9.2-1.9-13.7v0C767.9,574.3,747.2,558.7,723.7,558.7z" style="fill: rgb(255, 225, 210);"/>
				<path class="st12" d="M789.2,576.9L789.2,576.9c-2.7,1.2-3.6,4.6-1.9,7.1l10.7,15.4c1.5,2.2,0.9,5.3-1.4,6.7l-10.4,6.6&#10;&#9;&#9;&#9;&#9;&#9;c-1.4,0.9-2.2,2.4-2.2,4v40.6c0,0.6-0.1,1.2-0.4,1.8l-0.2,0.5c-1.9,4.6-8.7,3.6-9.1-1.3l-4.5-45.6c-0.1-1.3-0.8-2.5-1.9-3.3&#10;&#9;&#9;&#9;&#9;&#9;l-22.2-16.9c-4-3-9.4,1.4-7.1,5.9l3,6c1.8,3.5-1.3,7.6-5.2,6.8l-106.3-21.5c-1.9-0.4-3.8,0.4-4.9,1.9l-12.5,17.9&#10;&#9;&#9;&#9;&#9;&#9;c-0.5,0.7-0.7,1.4-0.8,2.2l-4.6,46.4c-0.5,4.9-7.3,5.9-9.1,1.3l-0.2-0.5c-0.2-0.6-0.4-1.2-0.4-1.8V553.9c0-3.1,2.9-5.4,5.9-4.6&#10;&#9;&#9;&#9;&#9;&#9;l27.7,6.7c1.6,0.4,3.4-0.1,4.5-1.3l22.2-23c1.2-1.3,3.1-1.8,4.8-1.3l126,37.6C792.9,569.3,793.3,575.1,789.2,576.9z" style="fill: rgb(62, 77, 89);"/>
			</g>
			<path class="st11" d="M705.6,663.2c0,0-0.4,0-0.8,0c-0.5,0-0.8,0-0.8,0s0.4,0,0.8,0C705.3,663.2,705.6,663.2,705.6,663.2z" style="fill: rgb(255, 225, 210);"/>
			<path class="st2" d="M741.7,622.5c-16.1,0-30,9.6-36.3,23.3c-3.9-3.5-9.1-5.7-14.7-5.7c-5.7,0-10.9,2.2-14.8,5.7&#10;&#9;&#9;&#9;&#9;c-6.3-13.8-20.2-23.4-36.4-23.4c-22.1,0-40,17.9-40,40s17.9,40,40,40s40-17.9,40-40c0-0.1,0-0.2,0-0.3h0.1&#10;&#9;&#9;&#9;&#9;c0-6.1,5-11.1,11.1-11.1s11.1,5,11.1,11.1h0c0,0.1,0,0.2,0,0.3c0,22.1,17.9,40,40,40s40-17.9,40-40S763.8,622.5,741.7,622.5z&#10;&#9;&#9;&#9;&#9; M639.5,691.5c-16,0-29-13-29-29s13-29,29-29s29,13,29,29S655.5,691.5,639.5,691.5z M741.7,691.5c-16,0-29-13-29-29s13-29,29-29&#10;&#9;&#9;&#9;&#9;s29,13,29,29S757.7,691.5,741.7,691.5z" style="fill: rgb(80, 113, 140);"/>
		</g>
	</g>
	<g>
		<g>
			<path class="st9" d="M1040.9,1090.8h-41.8c-3.6,0-6.5-2.9-6.5-6.5s2.9-6.5,6.5-6.5h41.8c6.4,0,12.5-2.8,16.7-7.6&#10;&#9;&#9;&#9;&#9;s6.1-11.2,5.3-17.5L1033,830.2c-0.9-6.5-5.5-12.1-11.8-14.2l-20.5-6.8c-3.4-1.1-5.2-4.8-4.1-8.2c1.1-3.4,4.8-5.2,8.2-4.1&#10;&#9;&#9;&#9;&#9;l20.5,6.8c10.9,3.6,19,13.4,20.5,24.8l29.8,222.5c1.3,10-1.7,20.2-8.4,27.8C1060.6,1086.4,1051,1090.8,1040.9,1090.8z" style="fill: rgb(213, 223, 239);"/>
		</g>
		<g>
			<path class="st3" d="M924.1,1004.8L924.1,1004.8c-5.3-2.1-7.9-8-5.8-13.3l150-384.5c2.1-5.3,8-7.9,13.3-5.8l0,0&#10;&#9;&#9;&#9;&#9;c5.3,2.1,7.9,8,5.8,13.3L937.3,999C935.3,1004.3,929.3,1006.9,924.1,1004.8z" style="fill: rgb(232, 238, 247);"/>
		</g>
	</g>
	<g>
		<g>
			<path class="st13" d="M333.6,910.6c-16.7,53.3,8.7,62.9-6.7,103.4C347,972.6,328.3,951,333.6,910.6z" style="fill: rgb(164, 231, 255);"/>
			<path class="st13" d="M367.3,920.9c-11.5,36.9,6,43.6-4.6,71.7C376.6,963.9,363.7,948.9,367.3,920.9z" style="fill: rgb(164, 231, 255);"/>
			<path class="st13" d="M349.6,939.2c11.5,36.9-6,43.6,4.6,71.7C340.4,982.2,353.3,967.2,349.6,939.2z" style="fill: rgb(164, 231, 255);"/>
		</g>
		<g>
			<path class="st14" d="M372.9,1090.8h-49.6c-6.3,0-11.3-5.1-11.3-11.3v-59.1c0-6.3,5.1-11.3,11.3-11.3h49.6&#10;&#9;&#9;&#9;&#9;c6.3,0,11.3,5.1,11.3,11.3v59.1C384.3,1085.7,379.2,1090.8,372.9,1090.8z" style="fill: rgb(244, 123, 91);"/>
			<g>
				<path class="st14" d="M391.8,1019.9h-32.7v8h32.7c5,0,9,4.1,9,9v25.9c0,5-4.1,9-9,9h-32.7v8h32.7c9.4,0,17-7.6,17-17v-25.9&#10;&#9;&#9;&#9;&#9;&#9;C408.8,1027.5,401.2,1019.9,391.8,1019.9z" style="fill: rgb(244, 123, 91);"/>
			</g>
		</g>
	</g>
</g></g></svg>